<mxfile host="Electron" agent="Mozilla/5.0 (Windows NT 10.0; Win64; x64) AppleWebKit/537.36 (KHTML, like Gecko) draw.io/25.0.2 Chrome/128.0.6613.186 Electron/32.2.5 Safari/537.36" version="25.0.2">
  <diagram name="Page-1" id="i3bOjm8s6gG7AWTNgjpN">
    <mxGraphModel dx="2730" dy="3216" grid="1" gridSize="10" guides="1" tooltips="1" connect="1" arrows="1" fold="1" page="1" pageScale="1" pageWidth="850" pageHeight="1100" math="0" shadow="0">
      <root>
        <mxCell id="0" />
        <mxCell id="1" parent="0" />
        <mxCell id="-qJB5kC-WUXduJZEbSwl-1" value="&lt;u&gt;PassengerID&lt;/u&gt;" style="rounded=0;whiteSpace=wrap;html=1;" parent="1" vertex="1">
          <mxGeometry x="38" y="-1081" width="80" height="60" as="geometry" />
        </mxCell>
        <mxCell id="-qJB5kC-WUXduJZEbSwl-2" value="Email" style="rounded=0;whiteSpace=wrap;html=1;" parent="1" vertex="1">
          <mxGeometry x="118" y="-1081" width="60" height="60" as="geometry" />
        </mxCell>
        <mxCell id="-qJB5kC-WUXduJZEbSwl-3" value="LName" style="rounded=0;whiteSpace=wrap;html=1;" parent="1" vertex="1">
          <mxGeometry x="428" y="-1081" width="60" height="60" as="geometry" />
        </mxCell>
        <mxCell id="-qJB5kC-WUXduJZEbSwl-4" value="Gender" style="rounded=0;whiteSpace=wrap;html=1;" parent="1" vertex="1">
          <mxGeometry x="178" y="-1081" width="60" height="60" as="geometry" />
        </mxCell>
        <mxCell id="-qJB5kC-WUXduJZEbSwl-5" value="NationalD" style="rounded=0;whiteSpace=wrap;html=1;" parent="1" vertex="1">
          <mxGeometry x="488" y="-1081" width="60" height="60" as="geometry" />
        </mxCell>
        <mxCell id="-qJB5kC-WUXduJZEbSwl-6" value="MName" style="rounded=0;whiteSpace=wrap;html=1;" parent="1" vertex="1">
          <mxGeometry x="368" y="-1081" width="60" height="60" as="geometry" />
        </mxCell>
        <mxCell id="-qJB5kC-WUXduJZEbSwl-7" value="PhoneNo" style="rounded=0;whiteSpace=wrap;html=1;" parent="1" vertex="1">
          <mxGeometry x="238" y="-1081" width="70" height="60" as="geometry" />
        </mxCell>
        <mxCell id="-qJB5kC-WUXduJZEbSwl-8" value="FName" style="rounded=0;whiteSpace=wrap;html=1;" parent="1" vertex="1">
          <mxGeometry x="308" y="-1081" width="60" height="60" as="geometry" />
        </mxCell>
        <mxCell id="VgQ9BqFcc3qlnG0QRLHN-4" style="edgeStyle=orthogonalEdgeStyle;rounded=0;orthogonalLoop=1;jettySize=auto;html=1;entryX=0.5;entryY=1;entryDx=0;entryDy=0;" parent="1" source="-qJB5kC-WUXduJZEbSwl-11" target="-qJB5kC-WUXduJZEbSwl-126" edge="1">
          <mxGeometry relative="1" as="geometry" />
        </mxCell>
        <mxCell id="-qJB5kC-WUXduJZEbSwl-11" value="&lt;font style=&quot;font-size: 14px;&quot;&gt;&lt;b style=&quot;&quot;&gt;Passenger&lt;/b&gt;&lt;/font&gt;&amp;nbsp;" style="text;html=1;align=center;verticalAlign=middle;resizable=0;points=[];autosize=1;strokeColor=none;fillColor=none;" parent="1" vertex="1">
          <mxGeometry x="18" y="-1111" width="100" height="30" as="geometry" />
        </mxCell>
        <mxCell id="-qJB5kC-WUXduJZEbSwl-12" value="BirthDate" style="rounded=0;whiteSpace=wrap;html=1;" parent="1" vertex="1">
          <mxGeometry x="548" y="-1081" width="60" height="60" as="geometry" />
        </mxCell>
        <mxCell id="-qJB5kC-WUXduJZEbSwl-13" value="Arrival Time" style="rounded=0;whiteSpace=wrap;html=1;" parent="1" vertex="1">
          <mxGeometry x="229" y="-873" width="70" height="60" as="geometry" />
        </mxCell>
        <mxCell id="-qJB5kC-WUXduJZEbSwl-14" value="Destination" style="rounded=0;whiteSpace=wrap;html=1;" parent="1" vertex="1">
          <mxGeometry x="159" y="-873" width="70" height="60" as="geometry" />
        </mxCell>
        <mxCell id="-qJB5kC-WUXduJZEbSwl-15" value="PassengerID" style="rounded=0;whiteSpace=wrap;html=1;" parent="1" vertex="1">
          <mxGeometry x="38" y="-973" width="82" height="60" as="geometry" />
        </mxCell>
        <mxCell id="-qJB5kC-WUXduJZEbSwl-16" value="Origin" style="rounded=0;whiteSpace=wrap;html=1;" parent="1" vertex="1">
          <mxGeometry x="99" y="-873" width="60" height="60" as="geometry" />
        </mxCell>
        <mxCell id="-qJB5kC-WUXduJZEbSwl-17" value="DepartureTime" style="rounded=0;whiteSpace=wrap;html=1;" parent="1" vertex="1">
          <mxGeometry x="299" y="-873" width="90" height="60" as="geometry" />
        </mxCell>
        <mxCell id="-qJB5kC-WUXduJZEbSwl-18" value="Airline Name" style="rounded=0;whiteSpace=wrap;html=1;" parent="1" vertex="1">
          <mxGeometry x="390" y="-870" width="100" height="57" as="geometry" />
        </mxCell>
        <mxCell id="-qJB5kC-WUXduJZEbSwl-19" value="FlightID" style="rounded=0;whiteSpace=wrap;html=1;" parent="1" vertex="1">
          <mxGeometry x="749" y="-873" width="60" height="60" as="geometry" />
        </mxCell>
        <mxCell id="-qJB5kC-WUXduJZEbSwl-20" value="PassengerID" style="rounded=0;whiteSpace=wrap;html=1;" parent="1" vertex="1">
          <mxGeometry x="669" y="-873" width="80" height="60" as="geometry" />
        </mxCell>
        <mxCell id="-qJB5kC-WUXduJZEbSwl-22" value="&lt;u&gt;TicketID&lt;/u&gt;" style="rounded=0;whiteSpace=wrap;html=1;" parent="1" vertex="1">
          <mxGeometry x="38" y="-873" width="60" height="60" as="geometry" />
        </mxCell>
        <mxCell id="-qJB5kC-WUXduJZEbSwl-23" value="&lt;b&gt;&lt;font style=&quot;font-size: 14px;&quot;&gt;Ticket&lt;/font&gt;&lt;/b&gt;" style="text;html=1;align=center;verticalAlign=middle;resizable=0;points=[];autosize=1;strokeColor=none;fillColor=none;" parent="1" vertex="1">
          <mxGeometry x="28" y="-903" width="60" height="30" as="geometry" />
        </mxCell>
        <mxCell id="-qJB5kC-WUXduJZEbSwl-31" value="" style="endArrow=none;dashed=1;html=1;dashPattern=1 3;strokeWidth=2;rounded=0;" parent="1" edge="1">
          <mxGeometry width="50" height="50" relative="1" as="geometry">
            <mxPoint x="759" y="-833" as="sourcePoint" />
            <mxPoint x="799" y="-833" as="targetPoint" />
            <Array as="points">
              <mxPoint x="779" y="-833" />
              <mxPoint x="799" y="-833" />
            </Array>
          </mxGeometry>
        </mxCell>
        <mxCell id="-qJB5kC-WUXduJZEbSwl-33" value="" style="endArrow=none;dashed=1;html=1;dashPattern=1 3;strokeWidth=2;rounded=0;" parent="1" edge="1">
          <mxGeometry width="50" height="50" relative="1" as="geometry">
            <mxPoint x="681.5" y="-833" as="sourcePoint" />
            <mxPoint x="736.5" y="-833" as="targetPoint" />
          </mxGeometry>
        </mxCell>
        <mxCell id="-qJB5kC-WUXduJZEbSwl-61" value="&lt;b&gt;&lt;font style=&quot;font-size: 14px;&quot;&gt;Passenger_PhoneNo&lt;/font&gt;&lt;/b&gt;" style="text;html=1;align=center;verticalAlign=middle;resizable=0;points=[];autosize=1;strokeColor=none;fillColor=none;" parent="1" vertex="1">
          <mxGeometry x="28" y="-1003" width="160" height="30" as="geometry" />
        </mxCell>
        <mxCell id="-qJB5kC-WUXduJZEbSwl-62" value="PhoneNo" style="rounded=0;whiteSpace=wrap;html=1;" parent="1" vertex="1">
          <mxGeometry x="120" y="-973" width="82" height="60" as="geometry" />
        </mxCell>
        <mxCell id="-qJB5kC-WUXduJZEbSwl-63" value="TotalSeats" style="rounded=0;whiteSpace=wrap;html=1;" parent="1" vertex="1">
          <mxGeometry x="100" y="-755" width="60" height="60" as="geometry" />
        </mxCell>
        <mxCell id="-qJB5kC-WUXduJZEbSwl-64" value="Origin" style="rounded=0;whiteSpace=wrap;html=1;" parent="1" vertex="1">
          <mxGeometry x="220" y="-756" width="60" height="60" as="geometry" />
        </mxCell>
        <mxCell id="-qJB5kC-WUXduJZEbSwl-65" value="Destination" style="rounded=0;whiteSpace=wrap;html=1;" parent="1" vertex="1">
          <mxGeometry x="280" y="-756" width="70" height="60" as="geometry" />
        </mxCell>
        <mxCell id="-qJB5kC-WUXduJZEbSwl-66" value="&lt;u&gt;FlightID&lt;/u&gt;" style="rounded=0;whiteSpace=wrap;html=1;" parent="1" vertex="1">
          <mxGeometry x="38" y="-755" width="62" height="60" as="geometry" />
        </mxCell>
        <mxCell id="-qJB5kC-WUXduJZEbSwl-67" value="Departure&lt;div&gt;Time&lt;/div&gt;" style="rounded=0;whiteSpace=wrap;html=1;" parent="1" vertex="1">
          <mxGeometry x="400" y="-755" width="60" height="60" as="geometry" />
        </mxCell>
        <mxCell id="-qJB5kC-WUXduJZEbSwl-68" value="Available&lt;div&gt;Seats&lt;/div&gt;" style="rounded=0;whiteSpace=wrap;html=1;" parent="1" vertex="1">
          <mxGeometry x="160" y="-756" width="60" height="60" as="geometry" />
        </mxCell>
        <mxCell id="-qJB5kC-WUXduJZEbSwl-69" value="Flight&lt;div&gt;Status&lt;/div&gt;" style="rounded=0;whiteSpace=wrap;html=1;" parent="1" vertex="1">
          <mxGeometry x="460" y="-755" width="50" height="60" as="geometry" />
        </mxCell>
        <mxCell id="-qJB5kC-WUXduJZEbSwl-70" value="Arrival&lt;div&gt;Time&lt;/div&gt;" style="rounded=0;whiteSpace=wrap;html=1;" parent="1" vertex="1">
          <mxGeometry x="350" y="-756" width="50" height="60" as="geometry" />
        </mxCell>
        <mxCell id="-qJB5kC-WUXduJZEbSwl-73" value="" style="endArrow=none;html=1;rounded=0;" parent="1" edge="1">
          <mxGeometry width="50" height="50" relative="1" as="geometry">
            <mxPoint x="48" y="-933" as="sourcePoint" />
            <mxPoint x="186" y="-933" as="targetPoint" />
          </mxGeometry>
        </mxCell>
        <mxCell id="-qJB5kC-WUXduJZEbSwl-79" value="LName" style="rounded=0;whiteSpace=wrap;html=1;" parent="1" vertex="1">
          <mxGeometry x="608" y="-873" width="60" height="60" as="geometry" />
        </mxCell>
        <mxCell id="-qJB5kC-WUXduJZEbSwl-80" value="MName" style="rounded=0;whiteSpace=wrap;html=1;" parent="1" vertex="1">
          <mxGeometry x="548" y="-873" width="60" height="60" as="geometry" />
        </mxCell>
        <mxCell id="-qJB5kC-WUXduJZEbSwl-81" value="FName" style="rounded=0;whiteSpace=wrap;html=1;" parent="1" vertex="1">
          <mxGeometry x="488" y="-873" width="60" height="60" as="geometry" />
        </mxCell>
        <mxCell id="-qJB5kC-WUXduJZEbSwl-85" value="" style="endArrow=none;dashed=1;html=1;dashPattern=1 3;strokeWidth=2;rounded=0;" parent="1" edge="1">
          <mxGeometry width="50" height="50" relative="1" as="geometry">
            <mxPoint x="621.5" y="-832" as="sourcePoint" />
            <mxPoint x="655" y="-832" as="targetPoint" />
          </mxGeometry>
        </mxCell>
        <mxCell id="-qJB5kC-WUXduJZEbSwl-87" value="" style="endArrow=none;dashed=1;html=1;dashPattern=1 3;strokeWidth=2;rounded=0;" parent="1" edge="1">
          <mxGeometry width="50" height="50" relative="1" as="geometry">
            <mxPoint x="559.5" y="-832" as="sourcePoint" />
            <mxPoint x="596.5" y="-832" as="targetPoint" />
          </mxGeometry>
        </mxCell>
        <mxCell id="-qJB5kC-WUXduJZEbSwl-88" value="" style="endArrow=none;dashed=1;html=1;dashPattern=1 3;strokeWidth=2;rounded=0;" parent="1" edge="1">
          <mxGeometry width="50" height="50" relative="1" as="geometry">
            <mxPoint x="497" y="-832" as="sourcePoint" />
            <mxPoint x="537" y="-832" as="targetPoint" />
          </mxGeometry>
        </mxCell>
        <mxCell id="-qJB5kC-WUXduJZEbSwl-89" value="" style="endArrow=classic;html=1;rounded=0;exitX=0.5;exitY=0;exitDx=0;exitDy=0;" parent="1" source="-qJB5kC-WUXduJZEbSwl-20" edge="1">
          <mxGeometry width="50" height="50" relative="1" as="geometry">
            <mxPoint x="380" y="-870" as="sourcePoint" />
            <mxPoint x="80" y="-1030" as="targetPoint" />
            <Array as="points">
              <mxPoint x="710" y="-1000" />
              <mxPoint x="400" y="-1000" />
              <mxPoint x="230" y="-1000" />
              <mxPoint x="150" y="-1000" />
              <mxPoint x="110" y="-1000" />
              <mxPoint x="80" y="-1000" />
            </Array>
          </mxGeometry>
        </mxCell>
        <mxCell id="-qJB5kC-WUXduJZEbSwl-90" value="&lt;b&gt;&lt;font style=&quot;font-size: 14px;&quot;&gt;Flight&lt;/font&gt;&lt;/b&gt;" style="text;html=1;align=center;verticalAlign=middle;resizable=0;points=[];autosize=1;strokeColor=none;fillColor=none;" parent="1" vertex="1">
          <mxGeometry x="28" y="-786" width="60" height="30" as="geometry" />
        </mxCell>
        <mxCell id="-qJB5kC-WUXduJZEbSwl-93" value="IsAvailable" style="rounded=0;whiteSpace=wrap;html=1;" parent="1" vertex="1">
          <mxGeometry x="122" y="-630" width="82" height="60" as="geometry" />
        </mxCell>
        <mxCell id="-qJB5kC-WUXduJZEbSwl-94" value="SeatNo" style="rounded=0;whiteSpace=wrap;html=1;" parent="1" vertex="1">
          <mxGeometry x="301" y="-631" width="71" height="60" as="geometry" />
        </mxCell>
        <mxCell id="-qJB5kC-WUXduJZEbSwl-95" value="SeatClass" style="rounded=0;whiteSpace=wrap;html=1;" parent="1" vertex="1">
          <mxGeometry x="372" y="-631" width="82" height="60" as="geometry" />
        </mxCell>
        <mxCell id="-qJB5kC-WUXduJZEbSwl-96" value="&lt;u&gt;SeatID&lt;/u&gt;" style="rounded=0;whiteSpace=wrap;html=1;" parent="1" vertex="1">
          <mxGeometry x="40" y="-630" width="82" height="60" as="geometry" />
        </mxCell>
        <mxCell id="-qJB5kC-WUXduJZEbSwl-98" value="BookingID" style="rounded=0;whiteSpace=wrap;html=1;" parent="1" vertex="1">
          <mxGeometry x="204" y="-631" width="98" height="60" as="geometry" />
        </mxCell>
        <mxCell id="-qJB5kC-WUXduJZEbSwl-99" value="FlightID" style="rounded=0;whiteSpace=wrap;html=1;" parent="1" vertex="1">
          <mxGeometry x="454" y="-631" width="82" height="60" as="geometry" />
        </mxCell>
        <mxCell id="-qJB5kC-WUXduJZEbSwl-101" value="&lt;b&gt;&lt;font style=&quot;font-size: 14px;&quot;&gt;Seat&lt;/font&gt;&lt;/b&gt;" style="text;html=1;align=center;verticalAlign=middle;resizable=0;points=[];autosize=1;strokeColor=none;fillColor=none;" parent="1" vertex="1">
          <mxGeometry x="33" y="-660" width="50" height="30" as="geometry" />
        </mxCell>
        <mxCell id="-qJB5kC-WUXduJZEbSwl-102" value="" style="endArrow=none;dashed=1;html=1;dashPattern=1 3;strokeWidth=2;rounded=0;" parent="1" edge="1">
          <mxGeometry width="50" height="50" relative="1" as="geometry">
            <mxPoint x="476.5" y="-590" as="sourcePoint" />
            <mxPoint x="509.5" y="-590" as="targetPoint" />
          </mxGeometry>
        </mxCell>
        <mxCell id="-qJB5kC-WUXduJZEbSwl-103" value="SeatNo" style="rounded=0;whiteSpace=wrap;html=1;" parent="1" vertex="1">
          <mxGeometry x="121" y="-499" width="82" height="60" as="geometry" />
        </mxCell>
        <mxCell id="-qJB5kC-WUXduJZEbSwl-104" value="BookingDate" style="rounded=0;whiteSpace=wrap;html=1;" parent="1" vertex="1">
          <mxGeometry x="300" y="-500" width="90" height="60" as="geometry" />
        </mxCell>
        <mxCell id="-qJB5kC-WUXduJZEbSwl-105" value="FlightID" style="rounded=0;whiteSpace=wrap;html=1;" parent="1" vertex="1">
          <mxGeometry x="480" y="-500" width="82" height="60" as="geometry" />
        </mxCell>
        <mxCell id="-qJB5kC-WUXduJZEbSwl-106" value="&lt;u&gt;BookingID&lt;/u&gt;" style="rounded=0;whiteSpace=wrap;html=1;" parent="1" vertex="1">
          <mxGeometry x="39" y="-499" width="82" height="60" as="geometry" />
        </mxCell>
        <mxCell id="-qJB5kC-WUXduJZEbSwl-107" value="BookingStatus" style="rounded=0;whiteSpace=wrap;html=1;" parent="1" vertex="1">
          <mxGeometry x="203" y="-500" width="98" height="60" as="geometry" />
        </mxCell>
        <mxCell id="-qJB5kC-WUXduJZEbSwl-108" value="PassengerID" style="rounded=0;whiteSpace=wrap;html=1;" parent="1" vertex="1">
          <mxGeometry x="390" y="-500" width="90" height="60" as="geometry" />
        </mxCell>
        <mxCell id="-qJB5kC-WUXduJZEbSwl-109" value="" style="endArrow=none;dashed=1;html=1;dashPattern=1 3;strokeWidth=2;rounded=0;" parent="1" edge="1">
          <mxGeometry width="50" height="50" relative="1" as="geometry">
            <mxPoint x="408" y="-460" as="sourcePoint" />
            <mxPoint x="462" y="-460" as="targetPoint" />
          </mxGeometry>
        </mxCell>
        <mxCell id="-qJB5kC-WUXduJZEbSwl-110" value="&lt;span style=&quot;text-wrap-mode: wrap;&quot;&gt;&lt;b&gt;&lt;font style=&quot;font-size: 14px;&quot;&gt;Booking&lt;/font&gt;&lt;/b&gt;&lt;/span&gt;" style="text;html=1;align=center;verticalAlign=middle;resizable=0;points=[];autosize=1;strokeColor=none;fillColor=none;" parent="1" vertex="1">
          <mxGeometry x="31" y="-529" width="80" height="30" as="geometry" />
        </mxCell>
        <mxCell id="-qJB5kC-WUXduJZEbSwl-112" value="Payment&lt;div&gt;Method&lt;/div&gt;" style="rounded=0;whiteSpace=wrap;html=1;" parent="1" vertex="1">
          <mxGeometry x="119" y="-368" width="71" height="60" as="geometry" />
        </mxCell>
        <mxCell id="-qJB5kC-WUXduJZEbSwl-113" value="Payment&lt;div&gt;Amount&lt;/div&gt;" style="rounded=0;whiteSpace=wrap;html=1;" parent="1" vertex="1">
          <mxGeometry x="190" y="-368" width="80" height="60" as="geometry" />
        </mxCell>
        <mxCell id="-qJB5kC-WUXduJZEbSwl-114" value="Payment&lt;div&gt;Status&lt;/div&gt;" style="rounded=0;whiteSpace=wrap;html=1;" parent="1" vertex="1">
          <mxGeometry x="350" y="-368" width="70" height="60" as="geometry" />
        </mxCell>
        <mxCell id="-qJB5kC-WUXduJZEbSwl-115" value="&lt;u&gt;PaymentID&lt;/u&gt;" style="rounded=0;whiteSpace=wrap;html=1;" parent="1" vertex="1">
          <mxGeometry x="37" y="-368" width="82" height="60" as="geometry" />
        </mxCell>
        <mxCell id="-qJB5kC-WUXduJZEbSwl-116" value="PassengerID" style="rounded=0;whiteSpace=wrap;html=1;" parent="1" vertex="1">
          <mxGeometry x="420" y="-368" width="98" height="60" as="geometry" />
        </mxCell>
        <mxCell id="-qJB5kC-WUXduJZEbSwl-117" value="Payment&lt;div&gt;Date&lt;/div&gt;" style="rounded=0;whiteSpace=wrap;html=1;" parent="1" vertex="1">
          <mxGeometry x="270" y="-368" width="80" height="60" as="geometry" />
        </mxCell>
        <mxCell id="-qJB5kC-WUXduJZEbSwl-118" value="" style="endArrow=none;dashed=1;html=1;dashPattern=1 3;strokeWidth=2;rounded=0;" parent="1" edge="1">
          <mxGeometry width="50" height="50" relative="1" as="geometry">
            <mxPoint x="438" y="-330" as="sourcePoint" />
            <mxPoint x="510" y="-330" as="targetPoint" />
          </mxGeometry>
        </mxCell>
        <mxCell id="-qJB5kC-WUXduJZEbSwl-119" value="&lt;span style=&quot;text-wrap-mode: wrap;&quot;&gt;&lt;font style=&quot;font-size: 14px;&quot;&gt;&lt;b&gt;Payment&lt;/b&gt;&lt;/font&gt;&lt;/span&gt;" style="text;html=1;align=center;verticalAlign=middle;resizable=0;points=[];autosize=1;strokeColor=none;fillColor=none;" parent="1" vertex="1">
          <mxGeometry x="26" y="-401" width="80" height="30" as="geometry" />
        </mxCell>
        <mxCell id="-qJB5kC-WUXduJZEbSwl-123" value="TicketID" style="rounded=0;whiteSpace=wrap;html=1;" parent="1" vertex="1">
          <mxGeometry x="131" y="-240" width="98" height="60" as="geometry" />
        </mxCell>
        <mxCell id="-qJB5kC-WUXduJZEbSwl-124" value="TicketID" style="rounded=0;whiteSpace=wrap;html=1;" parent="1" vertex="1">
          <mxGeometry x="136" y="-130" width="98" height="60" as="geometry" />
        </mxCell>
        <mxCell id="-qJB5kC-WUXduJZEbSwl-126" value="&lt;u&gt;PassengerID&lt;/u&gt;" style="rounded=0;whiteSpace=wrap;html=1;" parent="1" vertex="1">
          <mxGeometry x="37" y="-240" width="98" height="60" as="geometry" />
        </mxCell>
        <mxCell id="-qJB5kC-WUXduJZEbSwl-127" value="&lt;u&gt;FlightID&lt;/u&gt;" style="rounded=0;whiteSpace=wrap;html=1;" parent="1" vertex="1">
          <mxGeometry x="38" y="-130" width="98" height="60" as="geometry" />
        </mxCell>
        <mxCell id="-qJB5kC-WUXduJZEbSwl-128" value="" style="endArrow=none;dashed=1;html=1;dashPattern=1 3;strokeWidth=2;rounded=0;" parent="1" edge="1">
          <mxGeometry width="50" height="50" relative="1" as="geometry">
            <mxPoint x="144" y="-200" as="sourcePoint" />
            <mxPoint x="216" y="-200" as="targetPoint" />
          </mxGeometry>
        </mxCell>
        <mxCell id="-qJB5kC-WUXduJZEbSwl-129" value="&lt;span style=&quot;text-wrap-mode: wrap;&quot;&gt;&lt;b&gt;&lt;font style=&quot;font-size: 14px;&quot;&gt;IsOwnedBy&lt;/font&gt;&lt;/b&gt;&lt;/span&gt;" style="text;html=1;align=center;verticalAlign=middle;resizable=0;points=[];autosize=1;strokeColor=none;fillColor=none;" parent="1" vertex="1">
          <mxGeometry x="28" y="-270" width="100" height="30" as="geometry" />
        </mxCell>
        <mxCell id="-qJB5kC-WUXduJZEbSwl-131" value="" style="endArrow=none;dashed=1;html=1;dashPattern=1 3;strokeWidth=2;rounded=0;" parent="1" edge="1">
          <mxGeometry width="50" height="50" relative="1" as="geometry">
            <mxPoint x="501" y="-460" as="sourcePoint" />
            <mxPoint x="541" y="-460" as="targetPoint" />
          </mxGeometry>
        </mxCell>
        <mxCell id="-qJB5kC-WUXduJZEbSwl-132" value="BookingID" style="rounded=0;whiteSpace=wrap;html=1;" parent="1" vertex="1">
          <mxGeometry x="518" y="-368" width="98" height="60" as="geometry" />
        </mxCell>
        <mxCell id="-qJB5kC-WUXduJZEbSwl-133" value="" style="endArrow=none;dashed=1;html=1;dashPattern=1 3;strokeWidth=2;rounded=0;" parent="1" edge="1">
          <mxGeometry width="50" height="50" relative="1" as="geometry">
            <mxPoint x="536" y="-330" as="sourcePoint" />
            <mxPoint x="608" y="-330" as="targetPoint" />
          </mxGeometry>
        </mxCell>
        <mxCell id="-qJB5kC-WUXduJZEbSwl-134" value="" style="endArrow=classic;html=1;rounded=0;entryX=0;entryY=0.5;entryDx=0;entryDy=0;" parent="1" source="-qJB5kC-WUXduJZEbSwl-126" target="-qJB5kC-WUXduJZEbSwl-1" edge="1">
          <mxGeometry width="50" height="50" relative="1" as="geometry">
            <mxPoint x="430" y="-470" as="sourcePoint" />
            <mxPoint x="480" y="-520" as="targetPoint" />
            <Array as="points">
              <mxPoint x="10" y="-210" />
              <mxPoint x="10" y="-300" />
              <mxPoint x="10" y="-430" />
              <mxPoint x="10" y="-630" />
              <mxPoint x="10" y="-820" />
              <mxPoint x="10" y="-910" />
              <mxPoint x="10" y="-970" />
              <mxPoint x="10" y="-1051" />
            </Array>
          </mxGeometry>
        </mxCell>
        <mxCell id="-qJB5kC-WUXduJZEbSwl-135" value="" style="endArrow=classic;html=1;rounded=0;entryX=0;entryY=0.5;entryDx=0;entryDy=0;exitX=0.39;exitY=0;exitDx=0;exitDy=0;exitPerimeter=0;" parent="1" source="-qJB5kC-WUXduJZEbSwl-123" target="-qJB5kC-WUXduJZEbSwl-22" edge="1">
          <mxGeometry width="50" height="50" relative="1" as="geometry">
            <mxPoint x="171" y="-250" as="sourcePoint" />
            <mxPoint x="48" y="-1041" as="targetPoint" />
            <Array as="points">
              <mxPoint x="130" y="-250" />
              <mxPoint x="100" y="-250" />
              <mxPoint x="20" y="-250" />
              <mxPoint x="20" y="-290" />
              <mxPoint x="20" y="-420" />
              <mxPoint x="20" y="-620" />
              <mxPoint x="20" y="-810" />
              <mxPoint x="20" y="-830" />
              <mxPoint x="20" y="-843" />
            </Array>
          </mxGeometry>
        </mxCell>
        <mxCell id="-qJB5kC-WUXduJZEbSwl-136" value="&lt;span style=&quot;text-wrap-mode: wrap;&quot;&gt;&lt;b&gt;&lt;font style=&quot;font-size: 14px;&quot;&gt;BelongsTo&lt;/font&gt;&lt;/b&gt;&lt;/span&gt;" style="text;html=1;align=center;verticalAlign=middle;resizable=0;points=[];autosize=1;strokeColor=none;fillColor=none;" parent="1" vertex="1">
          <mxGeometry x="26" y="-160" width="90" height="30" as="geometry" />
        </mxCell>
        <mxCell id="-qJB5kC-WUXduJZEbSwl-137" value="" style="endArrow=none;dashed=1;html=1;dashPattern=1 3;strokeWidth=2;rounded=0;" parent="1" edge="1">
          <mxGeometry width="50" height="50" relative="1" as="geometry">
            <mxPoint x="160" y="-90" as="sourcePoint" />
            <mxPoint x="210" y="-90" as="targetPoint" />
          </mxGeometry>
        </mxCell>
        <mxCell id="-qJB5kC-WUXduJZEbSwl-138" value="" style="endArrow=classic;html=1;rounded=0;entryX=0;entryY=0.5;entryDx=0;entryDy=0;" parent="1" target="-qJB5kC-WUXduJZEbSwl-66" edge="1">
          <mxGeometry width="50" height="50" relative="1" as="geometry">
            <mxPoint x="40" y="-90" as="sourcePoint" />
            <mxPoint x="480" y="-300" as="targetPoint" />
            <Array as="points">
              <mxPoint x="30" y="-90" />
              <mxPoint x="30" y="-170" />
              <mxPoint x="30" y="-250" />
              <mxPoint x="30" y="-410" />
              <mxPoint x="30" y="-560" />
              <mxPoint x="30" y="-640" />
              <mxPoint x="30" y="-680" />
              <mxPoint x="30" y="-710" />
            </Array>
          </mxGeometry>
        </mxCell>
        <mxCell id="-qJB5kC-WUXduJZEbSwl-139" value="" style="endArrow=classic;html=1;rounded=0;exitX=1;exitY=0.75;exitDx=0;exitDy=0;entryX=0.5;entryY=1;entryDx=0;entryDy=0;" parent="1" source="-qJB5kC-WUXduJZEbSwl-124" target="-qJB5kC-WUXduJZEbSwl-22" edge="1">
          <mxGeometry width="50" height="50" relative="1" as="geometry">
            <mxPoint x="430" y="-350" as="sourcePoint" />
            <mxPoint x="480" y="-400" as="targetPoint" />
            <Array as="points">
              <mxPoint x="820" y="-85" />
              <mxPoint x="820" y="-530" />
              <mxPoint x="820" y="-790" />
              <mxPoint x="440" y="-790" />
              <mxPoint x="250" y="-790" />
              <mxPoint x="150" y="-790" />
              <mxPoint x="68" y="-790" />
            </Array>
          </mxGeometry>
        </mxCell>
        <mxCell id="-qJB5kC-WUXduJZEbSwl-140" value="SeatID" style="rounded=0;whiteSpace=wrap;html=1;" parent="1" vertex="1">
          <mxGeometry x="810" y="-873" width="60" height="60" as="geometry" />
        </mxCell>
        <mxCell id="-qJB5kC-WUXduJZEbSwl-141" value="" style="endArrow=none;dashed=1;html=1;dashPattern=1 3;strokeWidth=2;rounded=0;" parent="1" edge="1">
          <mxGeometry width="50" height="50" relative="1" as="geometry">
            <mxPoint x="820" y="-833" as="sourcePoint" />
            <mxPoint x="860" y="-833" as="targetPoint" />
            <Array as="points">
              <mxPoint x="840" y="-833" />
              <mxPoint x="860" y="-833" />
            </Array>
          </mxGeometry>
        </mxCell>
        <mxCell id="-qJB5kC-WUXduJZEbSwl-143" value="" style="endArrow=classic;html=1;rounded=0;exitX=1;exitY=0.5;exitDx=0;exitDy=0;entryX=0.5;entryY=0;entryDx=0;entryDy=0;" parent="1" source="-qJB5kC-WUXduJZEbSwl-140" target="-qJB5kC-WUXduJZEbSwl-96" edge="1">
          <mxGeometry width="50" height="50" relative="1" as="geometry">
            <mxPoint x="480" y="-710" as="sourcePoint" />
            <mxPoint x="530" y="-760" as="targetPoint" />
            <Array as="points">
              <mxPoint x="920" y="-843" />
              <mxPoint x="920" y="-660" />
              <mxPoint x="840" y="-660" />
              <mxPoint x="430" y="-660" />
              <mxPoint x="250" y="-660" />
              <mxPoint x="81" y="-660" />
            </Array>
          </mxGeometry>
        </mxCell>
        <mxCell id="-qJB5kC-WUXduJZEbSwl-144" value="TicketID" style="rounded=0;whiteSpace=wrap;html=1;" parent="1" vertex="1">
          <mxGeometry x="136" y="-20" width="98" height="60" as="geometry" />
        </mxCell>
        <mxCell id="-qJB5kC-WUXduJZEbSwl-145" value="&lt;u&gt;BookingID&lt;/u&gt;" style="rounded=0;whiteSpace=wrap;html=1;" parent="1" vertex="1">
          <mxGeometry x="38" y="-20" width="98" height="60" as="geometry" />
        </mxCell>
        <mxCell id="-qJB5kC-WUXduJZEbSwl-146" value="" style="endArrow=none;dashed=1;html=1;dashPattern=1 3;strokeWidth=2;rounded=0;" parent="1" edge="1">
          <mxGeometry width="50" height="50" relative="1" as="geometry">
            <mxPoint x="160" y="20" as="sourcePoint" />
            <mxPoint x="210" y="20" as="targetPoint" />
          </mxGeometry>
        </mxCell>
        <mxCell id="-qJB5kC-WUXduJZEbSwl-147" value="&lt;span style=&quot;text-wrap-mode: wrap;&quot;&gt;&lt;b&gt;&lt;font style=&quot;font-size: 14px;&quot;&gt;IsIssuedFor&lt;/font&gt;&lt;/b&gt;&lt;/span&gt;" style="text;html=1;align=center;verticalAlign=middle;resizable=0;points=[];autosize=1;strokeColor=none;fillColor=none;" parent="1" vertex="1">
          <mxGeometry x="30" y="-50" width="100" height="30" as="geometry" />
        </mxCell>
        <mxCell id="-qJB5kC-WUXduJZEbSwl-148" value="" style="endArrow=classic;html=1;rounded=0;exitX=0.871;exitY=0.049;exitDx=0;exitDy=0;entryX=0.75;entryY=1;entryDx=0;entryDy=0;exitPerimeter=0;" parent="1" source="-qJB5kC-WUXduJZEbSwl-145" target="-qJB5kC-WUXduJZEbSwl-106" edge="1">
          <mxGeometry width="50" height="50" relative="1" as="geometry">
            <mxPoint x="195" y="-120" as="sourcePoint" />
            <mxPoint x="93" y="-803" as="targetPoint" />
            <Array as="points">
              <mxPoint x="123" y="-40" />
              <mxPoint x="830" y="-50" />
              <mxPoint x="830" y="-400" />
              <mxPoint x="540" y="-400" />
              <mxPoint x="380" y="-400" />
              <mxPoint x="250" y="-400" />
              <mxPoint x="190" y="-400" />
              <mxPoint x="101" y="-400" />
            </Array>
          </mxGeometry>
        </mxCell>
        <mxCell id="-qJB5kC-WUXduJZEbSwl-149" value="" style="endArrow=classic;html=1;rounded=0;entryX=0.75;entryY=1;entryDx=0;entryDy=0;exitX=1;exitY=0.5;exitDx=0;exitDy=0;" parent="1" source="-qJB5kC-WUXduJZEbSwl-144" target="-qJB5kC-WUXduJZEbSwl-22" edge="1">
          <mxGeometry width="50" height="50" relative="1" as="geometry">
            <mxPoint x="240" y="20" as="sourcePoint" />
            <mxPoint x="93" y="-803" as="targetPoint" />
            <Array as="points">
              <mxPoint x="840" y="10" />
              <mxPoint x="840" y="-510" />
              <mxPoint x="840" y="-780" />
              <mxPoint x="450" y="-780" />
              <mxPoint x="260" y="-780" />
              <mxPoint x="160" y="-780" />
              <mxPoint x="93" y="-780" />
            </Array>
          </mxGeometry>
        </mxCell>
        <mxCell id="-qJB5kC-WUXduJZEbSwl-150" value="TicketID" style="rounded=0;whiteSpace=wrap;html=1;" parent="1" vertex="1">
          <mxGeometry x="135" y="76" width="98" height="60" as="geometry" />
        </mxCell>
        <mxCell id="-qJB5kC-WUXduJZEbSwl-151" value="&lt;u&gt;PaymentID&lt;/u&gt;" style="rounded=0;whiteSpace=wrap;html=1;" parent="1" vertex="1">
          <mxGeometry x="37" y="76" width="98" height="60" as="geometry" />
        </mxCell>
        <mxCell id="-qJB5kC-WUXduJZEbSwl-152" value="" style="endArrow=none;dashed=1;html=1;dashPattern=1 3;strokeWidth=2;rounded=0;" parent="1" edge="1">
          <mxGeometry width="50" height="50" relative="1" as="geometry">
            <mxPoint x="159" y="116" as="sourcePoint" />
            <mxPoint x="209" y="116" as="targetPoint" />
          </mxGeometry>
        </mxCell>
        <mxCell id="-qJB5kC-WUXduJZEbSwl-153" value="&lt;span style=&quot;text-wrap-mode: wrap;&quot;&gt;&lt;b&gt;&lt;font style=&quot;font-size: 14px;&quot;&gt;IsPaiBy&lt;/font&gt;&lt;/b&gt;&lt;/span&gt;" style="text;html=1;align=center;verticalAlign=middle;resizable=0;points=[];autosize=1;strokeColor=none;fillColor=none;" parent="1" vertex="1">
          <mxGeometry x="29" y="46" width="70" height="30" as="geometry" />
        </mxCell>
        <mxCell id="-qJB5kC-WUXduJZEbSwl-154" value="" style="endArrow=classic;html=1;rounded=0;exitX=1;exitY=0.5;exitDx=0;exitDy=0;entryX=0.867;entryY=1;entryDx=0;entryDy=0;entryPerimeter=0;" parent="1" source="-qJB5kC-WUXduJZEbSwl-150" target="-qJB5kC-WUXduJZEbSwl-22" edge="1">
          <mxGeometry width="50" height="50" relative="1" as="geometry">
            <mxPoint x="244" y="20" as="sourcePoint" />
            <mxPoint x="93" y="-803" as="targetPoint" />
            <Array as="points">
              <mxPoint x="860" y="100" />
              <mxPoint x="860" y="-190" />
              <mxPoint x="860" y="-760" />
              <mxPoint x="460" y="-770" />
              <mxPoint x="270" y="-770" />
              <mxPoint x="170" y="-770" />
              <mxPoint x="103" y="-770" />
            </Array>
          </mxGeometry>
        </mxCell>
        <mxCell id="-qJB5kC-WUXduJZEbSwl-155" value="" style="endArrow=classic;html=1;rounded=0;entryX=0.75;entryY=1;entryDx=0;entryDy=0;exitX=0.75;exitY=0;exitDx=0;exitDy=0;" parent="1" source="-qJB5kC-WUXduJZEbSwl-151" target="-qJB5kC-WUXduJZEbSwl-115" edge="1">
          <mxGeometry width="50" height="50" relative="1" as="geometry">
            <mxPoint x="110" y="70" as="sourcePoint" />
            <mxPoint x="530" y="-70" as="targetPoint" />
            <Array as="points">
              <mxPoint x="111" y="60" />
              <mxPoint x="320" y="60" />
              <mxPoint x="620" y="60" />
              <mxPoint x="620" y="-280" />
              <mxPoint x="360" y="-280" />
              <mxPoint x="100" y="-280" />
            </Array>
          </mxGeometry>
        </mxCell>
        <mxCell id="-qJB5kC-WUXduJZEbSwl-159" value="PaymentID" style="rounded=0;whiteSpace=wrap;html=1;" parent="1" vertex="1">
          <mxGeometry x="562" y="-500" width="82" height="60" as="geometry" />
        </mxCell>
        <mxCell id="-qJB5kC-WUXduJZEbSwl-160" value="" style="endArrow=none;dashed=1;html=1;dashPattern=1 3;strokeWidth=2;rounded=0;" parent="1" edge="1">
          <mxGeometry width="50" height="50" relative="1" as="geometry">
            <mxPoint x="575.5" y="-460" as="sourcePoint" />
            <mxPoint x="630.5" y="-459.67" as="targetPoint" />
          </mxGeometry>
        </mxCell>
        <mxCell id="-qJB5kC-WUXduJZEbSwl-162" value="" style="endArrow=classic;html=1;rounded=0;exitX=0.5;exitY=1;exitDx=0;exitDy=0;entryX=0.75;entryY=0;entryDx=0;entryDy=0;" parent="1" source="-qJB5kC-WUXduJZEbSwl-159" target="-qJB5kC-WUXduJZEbSwl-115" edge="1">
          <mxGeometry width="50" height="50" relative="1" as="geometry">
            <mxPoint x="480" y="-410" as="sourcePoint" />
            <mxPoint x="530" y="-460" as="targetPoint" />
            <Array as="points">
              <mxPoint x="600" y="-390" />
              <mxPoint x="110" y="-390" />
            </Array>
          </mxGeometry>
        </mxCell>
        <mxCell id="-qJB5kC-WUXduJZEbSwl-163" value="" style="endArrow=classic;html=1;rounded=0;exitX=0.5;exitY=0;exitDx=0;exitDy=0;entryX=0.5;entryY=1;entryDx=0;entryDy=0;" parent="1" source="-qJB5kC-WUXduJZEbSwl-81" target="-qJB5kC-WUXduJZEbSwl-8" edge="1">
          <mxGeometry width="50" height="50" relative="1" as="geometry">
            <mxPoint x="480" y="-810" as="sourcePoint" />
            <mxPoint x="530" y="-860" as="targetPoint" />
            <Array as="points">
              <mxPoint x="518" y="-900" />
              <mxPoint x="338" y="-900" />
            </Array>
          </mxGeometry>
        </mxCell>
        <mxCell id="-qJB5kC-WUXduJZEbSwl-164" value="" style="endArrow=classic;html=1;rounded=0;exitX=0.5;exitY=0;exitDx=0;exitDy=0;entryX=0.5;entryY=1;entryDx=0;entryDy=0;" parent="1" source="-qJB5kC-WUXduJZEbSwl-80" target="-qJB5kC-WUXduJZEbSwl-6" edge="1">
          <mxGeometry width="50" height="50" relative="1" as="geometry">
            <mxPoint x="480" y="-810" as="sourcePoint" />
            <mxPoint x="530" y="-860" as="targetPoint" />
            <Array as="points">
              <mxPoint x="580" y="-920" />
              <mxPoint x="400" y="-920" />
            </Array>
          </mxGeometry>
        </mxCell>
        <mxCell id="-qJB5kC-WUXduJZEbSwl-165" value="" style="endArrow=classic;html=1;rounded=0;exitX=0.5;exitY=0;exitDx=0;exitDy=0;entryX=0.5;entryY=1;entryDx=0;entryDy=0;" parent="1" source="-qJB5kC-WUXduJZEbSwl-79" target="-qJB5kC-WUXduJZEbSwl-3" edge="1">
          <mxGeometry width="50" height="50" relative="1" as="geometry">
            <mxPoint x="480" y="-810" as="sourcePoint" />
            <mxPoint x="530" y="-860" as="targetPoint" />
            <Array as="points">
              <mxPoint x="638" y="-960" />
              <mxPoint x="458" y="-960" />
            </Array>
          </mxGeometry>
        </mxCell>
        <mxCell id="-qJB5kC-WUXduJZEbSwl-166" value="" style="endArrow=classic;html=1;rounded=0;exitX=0.75;exitY=1;exitDx=0;exitDy=0;entryX=0.5;entryY=1;entryDx=0;entryDy=0;" parent="1" source="-qJB5kC-WUXduJZEbSwl-19" target="-qJB5kC-WUXduJZEbSwl-66" edge="1">
          <mxGeometry width="50" height="50" relative="1" as="geometry">
            <mxPoint x="480" y="-810" as="sourcePoint" />
            <mxPoint x="530" y="-860" as="targetPoint" />
            <Array as="points">
              <mxPoint x="794" y="-680" />
              <mxPoint x="79" y="-680" />
            </Array>
          </mxGeometry>
        </mxCell>
        <mxCell id="-qJB5kC-WUXduJZEbSwl-167" value="" style="endArrow=classic;html=1;rounded=0;exitX=0.5;exitY=0;exitDx=0;exitDy=0;entryX=0.872;entryY=0.974;entryDx=0;entryDy=0;entryPerimeter=0;" parent="1" source="-qJB5kC-WUXduJZEbSwl-99" target="-qJB5kC-WUXduJZEbSwl-66" edge="1">
          <mxGeometry width="50" height="50" relative="1" as="geometry">
            <mxPoint x="480" y="-540" as="sourcePoint" />
            <mxPoint x="530" y="-590" as="targetPoint" />
            <Array as="points">
              <mxPoint x="480" y="-640" />
              <mxPoint x="300" y="-640" />
              <mxPoint x="110" y="-640" />
            </Array>
          </mxGeometry>
        </mxCell>
        <mxCell id="-qJB5kC-WUXduJZEbSwl-168" value="" style="endArrow=classic;html=1;rounded=0;exitX=0.5;exitY=0;exitDx=0;exitDy=0;entryX=0;entryY=0.75;entryDx=0;entryDy=0;" parent="1" source="-qJB5kC-WUXduJZEbSwl-108" target="-qJB5kC-WUXduJZEbSwl-1" edge="1">
          <mxGeometry width="50" height="50" relative="1" as="geometry">
            <mxPoint x="480" y="-540" as="sourcePoint" />
            <mxPoint x="530" y="-590" as="targetPoint" />
            <Array as="points">
              <mxPoint x="435" y="-540" />
              <mxPoint x="-10" y="-540" />
              <mxPoint x="-10" y="-790" />
              <mxPoint x="-10" y="-1036" />
            </Array>
          </mxGeometry>
        </mxCell>
        <mxCell id="-qJB5kC-WUXduJZEbSwl-171" value="" style="endArrow=classic;html=1;rounded=0;exitX=0.5;exitY=0;exitDx=0;exitDy=0;entryX=0;entryY=0.25;entryDx=0;entryDy=0;" parent="1" source="-qJB5kC-WUXduJZEbSwl-105" target="-qJB5kC-WUXduJZEbSwl-66" edge="1">
          <mxGeometry width="50" height="50" relative="1" as="geometry">
            <mxPoint x="330" y="-530" as="sourcePoint" />
            <mxPoint x="380" y="-580" as="targetPoint" />
            <Array as="points">
              <mxPoint x="520" y="-520" />
              <mxPoint x="-40" y="-520" />
              <mxPoint x="-40" y="-740" />
            </Array>
          </mxGeometry>
        </mxCell>
        <mxCell id="-qJB5kC-WUXduJZEbSwl-172" value="" style="endArrow=classic;html=1;rounded=0;exitX=0.406;exitY=0.996;exitDx=0;exitDy=0;exitPerimeter=0;entryX=0;entryY=0.25;entryDx=0;entryDy=0;" parent="1" source="-qJB5kC-WUXduJZEbSwl-116" target="-qJB5kC-WUXduJZEbSwl-1" edge="1">
          <mxGeometry width="50" height="50" relative="1" as="geometry">
            <mxPoint x="330" y="-260" as="sourcePoint" />
            <mxPoint x="380" y="-310" as="targetPoint" />
            <Array as="points">
              <mxPoint x="460" y="-270" />
              <mxPoint x="-50" y="-270" />
              <mxPoint x="-50" y="-1066" />
            </Array>
          </mxGeometry>
        </mxCell>
        <mxCell id="-qJB5kC-WUXduJZEbSwl-173" value="" style="endArrow=classic;html=1;rounded=0;entryX=0.5;entryY=1;entryDx=0;entryDy=0;" parent="1" source="-qJB5kC-WUXduJZEbSwl-132" target="-qJB5kC-WUXduJZEbSwl-106" edge="1">
          <mxGeometry width="50" height="50" relative="1" as="geometry">
            <mxPoint x="650" y="-370" as="sourcePoint" />
            <mxPoint x="380" y="-320" as="targetPoint" />
            <Array as="points">
              <mxPoint x="570" y="-420" />
              <mxPoint x="80" y="-420" />
            </Array>
          </mxGeometry>
        </mxCell>
        <mxCell id="45m1rBqF4YHYHD4pce1a-2" value="&lt;u&gt;ReportID&lt;/u&gt;" style="rounded=0;whiteSpace=wrap;html=1;" parent="1" vertex="1">
          <mxGeometry x="37" y="170" width="98" height="60" as="geometry" />
        </mxCell>
        <mxCell id="45m1rBqF4YHYHD4pce1a-3" value="ReportType" style="rounded=0;whiteSpace=wrap;html=1;" parent="1" vertex="1">
          <mxGeometry x="136" y="170" width="98" height="60" as="geometry" />
        </mxCell>
        <mxCell id="45m1rBqF4YHYHD4pce1a-4" value="GeneratedDate" style="rounded=0;whiteSpace=wrap;html=1;" parent="1" vertex="1">
          <mxGeometry x="234" y="170" width="98" height="60" as="geometry" />
        </mxCell>
        <mxCell id="45m1rBqF4YHYHD4pce1a-5" value="Content" style="rounded=0;whiteSpace=wrap;html=1;" parent="1" vertex="1">
          <mxGeometry x="332" y="170" width="98" height="60" as="geometry" />
        </mxCell>
        <mxCell id="45m1rBqF4YHYHD4pce1a-6" value="&lt;b&gt;&lt;font style=&quot;font-size: 14px;&quot;&gt;Report&lt;/font&gt;&lt;/b&gt;" style="text;html=1;align=center;verticalAlign=middle;resizable=0;points=[];autosize=1;strokeColor=none;fillColor=none;" parent="1" vertex="1">
          <mxGeometry x="29" y="140" width="70" height="30" as="geometry" />
        </mxCell>
        <mxCell id="45m1rBqF4YHYHD4pce1a-7" value="&lt;u&gt;ReportID&lt;/u&gt;" style="rounded=0;whiteSpace=wrap;html=1;" parent="1" vertex="1">
          <mxGeometry x="38" y="270" width="98" height="60" as="geometry" />
        </mxCell>
        <mxCell id="45m1rBqF4YHYHD4pce1a-8" value="&lt;u&gt;FlightID&lt;/u&gt;" style="rounded=0;whiteSpace=wrap;html=1;" parent="1" vertex="1">
          <mxGeometry x="136" y="270" width="98" height="60" as="geometry" />
        </mxCell>
        <mxCell id="45m1rBqF4YHYHD4pce1a-9" value="" style="endArrow=classic;html=1;rounded=0;entryX=0.5;entryY=1;entryDx=0;entryDy=0;exitX=0.5;exitY=0;exitDx=0;exitDy=0;" parent="1" source="45m1rBqF4YHYHD4pce1a-7" target="45m1rBqF4YHYHD4pce1a-2" edge="1">
          <mxGeometry width="50" height="50" relative="1" as="geometry">
            <mxPoint x="50" y="300" as="sourcePoint" />
            <mxPoint x="100" y="250" as="targetPoint" />
          </mxGeometry>
        </mxCell>
        <mxCell id="45m1rBqF4YHYHD4pce1a-16" value="" style="endArrow=none;html=1;rounded=0;" parent="1" edge="1">
          <mxGeometry width="50" height="50" relative="1" as="geometry">
            <mxPoint x="890" y="-670" as="sourcePoint" />
            <mxPoint x="60" y="-670" as="targetPoint" />
          </mxGeometry>
        </mxCell>
        <mxCell id="45m1rBqF4YHYHD4pce1a-17" value="" style="endArrow=classic;html=1;rounded=0;entryX=0.25;entryY=1;entryDx=0;entryDy=0;" parent="1" target="-qJB5kC-WUXduJZEbSwl-66" edge="1">
          <mxGeometry width="50" height="50" relative="1" as="geometry">
            <mxPoint x="60" y="-670" as="sourcePoint" />
            <mxPoint x="80" y="-670" as="targetPoint" />
          </mxGeometry>
        </mxCell>
        <mxCell id="45m1rBqF4YHYHD4pce1a-18" value="" style="endArrow=none;html=1;rounded=0;" parent="1" edge="1">
          <mxGeometry width="50" height="50" relative="1" as="geometry">
            <mxPoint x="890" y="300" as="sourcePoint" />
            <mxPoint x="890" y="-670" as="targetPoint" />
          </mxGeometry>
        </mxCell>
        <mxCell id="45m1rBqF4YHYHD4pce1a-20" value="" style="endArrow=none;html=1;rounded=0;exitX=1;exitY=0.5;exitDx=0;exitDy=0;" parent="1" source="45m1rBqF4YHYHD4pce1a-8" edge="1">
          <mxGeometry width="50" height="50" relative="1" as="geometry">
            <mxPoint x="290" y="360" as="sourcePoint" />
            <mxPoint x="890" y="300" as="targetPoint" />
          </mxGeometry>
        </mxCell>
        <mxCell id="45m1rBqF4YHYHD4pce1a-21" value="&lt;b&gt;&lt;font style=&quot;font-size: 14px;&quot;&gt;Refer&lt;/font&gt;&lt;/b&gt;" style="text;html=1;align=center;verticalAlign=middle;resizable=0;points=[];autosize=1;strokeColor=none;fillColor=none;" parent="1" vertex="1">
          <mxGeometry x="29" y="240" width="60" height="30" as="geometry" />
        </mxCell>
        <mxCell id="6e8BAjFvltRmz_b3n2AF-8" value="&lt;u&gt;Baggage ID&lt;/u&gt;" style="rounded=0;whiteSpace=wrap;html=1;" parent="1" vertex="1">
          <mxGeometry x="809" y="-1081" width="91" height="60" as="geometry" />
        </mxCell>
        <mxCell id="6e8BAjFvltRmz_b3n2AF-9" value="PassengerID" style="rounded=0;whiteSpace=wrap;html=1;" parent="1" vertex="1">
          <mxGeometry x="900" y="-1081" width="91" height="60" as="geometry" />
        </mxCell>
        <mxCell id="6e8BAjFvltRmz_b3n2AF-10" value="Weight" style="rounded=0;whiteSpace=wrap;html=1;" parent="1" vertex="1">
          <mxGeometry x="1082" y="-1081" width="91" height="60" as="geometry" />
        </mxCell>
        <mxCell id="6e8BAjFvltRmz_b3n2AF-11" value="Departure&lt;div&gt;AirportID&lt;/div&gt;" style="rounded=0;whiteSpace=wrap;html=1;" parent="1" vertex="1">
          <mxGeometry x="570" y="-755" width="70" height="60" as="geometry" />
        </mxCell>
        <mxCell id="6e8BAjFvltRmz_b3n2AF-12" value="Arrival&lt;div&gt;AirportID&lt;/div&gt;" style="rounded=0;whiteSpace=wrap;html=1;" parent="1" vertex="1">
          <mxGeometry x="510" y="-755" width="60" height="60" as="geometry" />
        </mxCell>
        <mxCell id="6e8BAjFvltRmz_b3n2AF-13" value="TicketID" style="rounded=0;whiteSpace=wrap;html=1;" parent="1" vertex="1">
          <mxGeometry x="991" y="-1081" width="91" height="60" as="geometry" />
        </mxCell>
        <mxCell id="6e8BAjFvltRmz_b3n2AF-14" value="AirlineID" style="rounded=0;whiteSpace=wrap;html=1;" parent="1" vertex="1">
          <mxGeometry x="640" y="-755" width="60" height="60" as="geometry" />
        </mxCell>
        <mxCell id="6e8BAjFvltRmz_b3n2AF-15" value="&lt;font style=&quot;font-size: 14px;&quot;&gt;&lt;b&gt;Baggage&lt;/b&gt;&lt;/font&gt;" style="text;html=1;align=center;verticalAlign=middle;resizable=0;points=[];autosize=1;strokeColor=none;fillColor=none;" parent="1" vertex="1">
          <mxGeometry x="800" y="-1111" width="80" height="30" as="geometry" />
        </mxCell>
        <mxCell id="6e8BAjFvltRmz_b3n2AF-16" value="" style="endArrow=none;dashed=1;html=1;dashPattern=1 3;strokeWidth=2;rounded=0;" parent="1" edge="1">
          <mxGeometry width="50" height="50" relative="1" as="geometry">
            <mxPoint x="920.5" y="-1040" as="sourcePoint" />
            <mxPoint x="970.5" y="-1039.75" as="targetPoint" />
          </mxGeometry>
        </mxCell>
        <mxCell id="6e8BAjFvltRmz_b3n2AF-17" value="" style="endArrow=none;dashed=1;html=1;dashPattern=1 3;strokeWidth=2;rounded=0;" parent="1" edge="1">
          <mxGeometry width="50" height="50" relative="1" as="geometry">
            <mxPoint x="1020" y="-1040" as="sourcePoint" />
            <mxPoint x="1060" y="-1040" as="targetPoint" />
          </mxGeometry>
        </mxCell>
        <mxCell id="6e8BAjFvltRmz_b3n2AF-19" value="" style="endArrow=none;dashed=1;html=1;dashPattern=1 3;strokeWidth=2;rounded=0;" parent="1" edge="1">
          <mxGeometry width="50" height="50" relative="1" as="geometry">
            <mxPoint x="522" y="-710" as="sourcePoint" />
            <mxPoint x="562" y="-710" as="targetPoint" />
          </mxGeometry>
        </mxCell>
        <mxCell id="6e8BAjFvltRmz_b3n2AF-20" value="&lt;u&gt;Arrival&lt;/u&gt;&lt;div&gt;&lt;u&gt;AirportID&lt;/u&gt;&lt;/div&gt;" style="rounded=0;whiteSpace=wrap;html=1;" parent="1" vertex="1">
          <mxGeometry x="810" y="-988" width="70" height="60" as="geometry" />
        </mxCell>
        <mxCell id="6e8BAjFvltRmz_b3n2AF-22" value="&lt;u&gt;Departure&lt;/u&gt;&lt;div&gt;&lt;u&gt;AirportID&lt;/u&gt;&lt;/div&gt;" style="rounded=0;whiteSpace=wrap;html=1;" parent="1" vertex="1">
          <mxGeometry x="880" y="-988" width="70" height="60" as="geometry" />
        </mxCell>
        <mxCell id="6e8BAjFvltRmz_b3n2AF-27" value="&lt;font style=&quot;font-size: 14px;&quot;&gt;&lt;b&gt;Airport&lt;/b&gt;&lt;/font&gt;" style="text;html=1;align=center;verticalAlign=middle;resizable=0;points=[];autosize=1;strokeColor=none;fillColor=none;" parent="1" vertex="1">
          <mxGeometry x="795" y="-1012" width="70" height="30" as="geometry" />
        </mxCell>
        <mxCell id="6e8BAjFvltRmz_b3n2AF-29" value="Airport&lt;div&gt;Location&lt;/div&gt;" style="rounded=0;whiteSpace=wrap;html=1;" parent="1" vertex="1">
          <mxGeometry x="950" y="-988" width="70" height="60" as="geometry" />
        </mxCell>
        <mxCell id="6e8BAjFvltRmz_b3n2AF-30" value="Airport&lt;div&gt;Name&lt;/div&gt;" style="rounded=0;whiteSpace=wrap;html=1;" parent="1" vertex="1">
          <mxGeometry x="1020" y="-988" width="70" height="60" as="geometry" />
        </mxCell>
        <mxCell id="6e8BAjFvltRmz_b3n2AF-31" value="Country" style="rounded=0;whiteSpace=wrap;html=1;" parent="1" vertex="1">
          <mxGeometry x="1090" y="-988" width="60" height="60" as="geometry" />
        </mxCell>
        <mxCell id="6e8BAjFvltRmz_b3n2AF-32" value="City" style="rounded=0;whiteSpace=wrap;html=1;" parent="1" vertex="1">
          <mxGeometry x="1150" y="-988" width="50" height="60" as="geometry" />
        </mxCell>
        <mxCell id="6e8BAjFvltRmz_b3n2AF-33" value="" style="endArrow=none;dashed=1;html=1;dashPattern=1 3;strokeWidth=2;rounded=0;" parent="1" edge="1">
          <mxGeometry width="50" height="50" relative="1" as="geometry">
            <mxPoint x="585" y="-710" as="sourcePoint" />
            <mxPoint x="625" y="-710" as="targetPoint" />
          </mxGeometry>
        </mxCell>
        <mxCell id="6e8BAjFvltRmz_b3n2AF-34" value="" style="endArrow=classic;html=1;rounded=0;exitX=0.5;exitY=0;exitDx=0;exitDy=0;entryX=0.5;entryY=1;entryDx=0;entryDy=0;" parent="1" source="6e8BAjFvltRmz_b3n2AF-12" target="6e8BAjFvltRmz_b3n2AF-20" edge="1">
          <mxGeometry width="50" height="50" relative="1" as="geometry">
            <mxPoint x="700" y="-760" as="sourcePoint" />
            <mxPoint x="750" y="-810" as="targetPoint" />
            <Array as="points">
              <mxPoint x="540" y="-770" />
              <mxPoint x="970" y="-770" />
              <mxPoint x="970" y="-880" />
              <mxPoint x="845" y="-880" />
            </Array>
          </mxGeometry>
        </mxCell>
        <mxCell id="6e8BAjFvltRmz_b3n2AF-35" value="" style="endArrow=classic;html=1;rounded=0;exitX=0.5;exitY=0;exitDx=0;exitDy=0;entryX=0.156;entryY=1.041;entryDx=0;entryDy=0;entryPerimeter=0;" parent="1" source="6e8BAjFvltRmz_b3n2AF-11" target="6e8BAjFvltRmz_b3n2AF-22" edge="1">
          <mxGeometry width="50" height="50" relative="1" as="geometry">
            <mxPoint x="700" y="-760" as="sourcePoint" />
            <mxPoint x="750" y="-810" as="targetPoint" />
            <Array as="points">
              <mxPoint x="605" y="-800" />
              <mxPoint x="1030" y="-800" />
              <mxPoint x="1030" y="-890" />
              <mxPoint x="890" y="-890" />
            </Array>
          </mxGeometry>
        </mxCell>
        <mxCell id="6e8BAjFvltRmz_b3n2AF-36" value="Arrival&lt;div&gt;AirportID&lt;/div&gt;" style="rounded=0;whiteSpace=wrap;html=1;" parent="1" vertex="1">
          <mxGeometry x="970" y="-720" width="80" height="60" as="geometry" />
        </mxCell>
        <mxCell id="6e8BAjFvltRmz_b3n2AF-37" value="&lt;font style=&quot;font-size: 14px;&quot;&gt;&lt;b&gt;Operates&lt;/b&gt;&lt;/font&gt;" style="text;html=1;align=center;verticalAlign=middle;resizable=0;points=[];autosize=1;strokeColor=none;fillColor=none;" parent="1" vertex="1">
          <mxGeometry x="960" y="-755" width="80" height="30" as="geometry" />
        </mxCell>
        <mxCell id="6e8BAjFvltRmz_b3n2AF-38" value="Departure&lt;div&gt;AirportID&lt;/div&gt;" style="rounded=0;whiteSpace=wrap;html=1;" parent="1" vertex="1">
          <mxGeometry x="1050" y="-720" width="80" height="60" as="geometry" />
        </mxCell>
        <mxCell id="6e8BAjFvltRmz_b3n2AF-39" value="&lt;u&gt;Baggage ID&lt;/u&gt;" style="rounded=0;whiteSpace=wrap;html=1;" parent="1" vertex="1">
          <mxGeometry x="980" y="-589" width="80" height="60" as="geometry" />
        </mxCell>
        <mxCell id="6e8BAjFvltRmz_b3n2AF-40" value="FlightID" style="rounded=0;whiteSpace=wrap;html=1;" parent="1" vertex="1">
          <mxGeometry x="1130" y="-720" width="80" height="60" as="geometry" />
        </mxCell>
        <mxCell id="6e8BAjFvltRmz_b3n2AF-41" value="" style="endArrow=none;html=1;rounded=0;entryX=0.75;entryY=0.833;entryDx=0;entryDy=0;entryPerimeter=0;" parent="1" target="6e8BAjFvltRmz_b3n2AF-40" edge="1">
          <mxGeometry width="50" height="50" relative="1" as="geometry">
            <mxPoint x="991" y="-670" as="sourcePoint" />
            <mxPoint x="1141" y="-670" as="targetPoint" />
          </mxGeometry>
        </mxCell>
        <mxCell id="6e8BAjFvltRmz_b3n2AF-42" value="" style="endArrow=classic;html=1;rounded=0;exitX=0.875;exitY=-0.017;exitDx=0;exitDy=0;exitPerimeter=0;entryX=0.75;entryY=1;entryDx=0;entryDy=0;" parent="1" source="6e8BAjFvltRmz_b3n2AF-36" target="6e8BAjFvltRmz_b3n2AF-20" edge="1">
          <mxGeometry width="50" height="50" relative="1" as="geometry">
            <mxPoint x="740" y="-730" as="sourcePoint" />
            <mxPoint x="790" y="-780" as="targetPoint" />
            <Array as="points">
              <mxPoint x="1040" y="-900" />
              <mxPoint x="863" y="-900" />
            </Array>
          </mxGeometry>
        </mxCell>
        <mxCell id="6e8BAjFvltRmz_b3n2AF-43" value="" style="endArrow=classic;html=1;rounded=0;entryX=0.406;entryY=1.003;entryDx=0;entryDy=0;entryPerimeter=0;" parent="1" target="6e8BAjFvltRmz_b3n2AF-22" edge="1">
          <mxGeometry width="50" height="50" relative="1" as="geometry">
            <mxPoint x="1100" y="-730" as="sourcePoint" />
            <mxPoint x="790" y="-780" as="targetPoint" />
            <Array as="points">
              <mxPoint x="1100" y="-910" />
              <mxPoint x="910" y="-910" />
            </Array>
          </mxGeometry>
        </mxCell>
        <mxCell id="6e8BAjFvltRmz_b3n2AF-44" value="" style="endArrow=classic;html=1;rounded=0;exitX=0.5;exitY=1;exitDx=0;exitDy=0;entryX=0;entryY=1;entryDx=0;entryDy=0;" parent="1" source="6e8BAjFvltRmz_b3n2AF-40" target="-qJB5kC-WUXduJZEbSwl-66" edge="1">
          <mxGeometry width="50" height="50" relative="1" as="geometry">
            <mxPoint x="740" y="-730" as="sourcePoint" />
            <mxPoint x="790" y="-780" as="targetPoint" />
            <Array as="points">
              <mxPoint x="1170" y="-640" />
              <mxPoint x="560" y="-650" />
              <mxPoint x="290" y="-650" />
              <mxPoint x="38" y="-660" />
            </Array>
          </mxGeometry>
        </mxCell>
        <mxCell id="6e8BAjFvltRmz_b3n2AF-45" value="&lt;font style=&quot;font-size: 14px;&quot;&gt;&lt;b&gt;Check In&lt;/b&gt;&lt;/font&gt;" style="text;html=1;align=center;verticalAlign=middle;resizable=0;points=[];autosize=1;strokeColor=none;fillColor=none;" parent="1" vertex="1">
          <mxGeometry x="970" y="-619" width="80" height="30" as="geometry" />
        </mxCell>
        <mxCell id="6e8BAjFvltRmz_b3n2AF-46" value="PassengerID" style="rounded=0;whiteSpace=wrap;html=1;" parent="1" vertex="1">
          <mxGeometry x="1060" y="-589" width="80" height="60" as="geometry" />
        </mxCell>
        <mxCell id="6e8BAjFvltRmz_b3n2AF-47" value="" style="endArrow=none;dashed=1;html=1;dashPattern=1 3;strokeWidth=2;rounded=0;" parent="1" edge="1">
          <mxGeometry width="50" height="50" relative="1" as="geometry">
            <mxPoint x="1075" y="-550" as="sourcePoint" />
            <mxPoint x="1125" y="-549.75" as="targetPoint" />
          </mxGeometry>
        </mxCell>
        <mxCell id="6e8BAjFvltRmz_b3n2AF-48" value="" style="endArrow=classic;html=1;rounded=0;exitX=0.862;exitY=0.05;exitDx=0;exitDy=0;exitPerimeter=0;entryX=0.75;entryY=1;entryDx=0;entryDy=0;" parent="1" source="6e8BAjFvltRmz_b3n2AF-39" target="6e8BAjFvltRmz_b3n2AF-8" edge="1">
          <mxGeometry width="50" height="50" relative="1" as="geometry">
            <mxPoint x="740" y="-750" as="sourcePoint" />
            <mxPoint x="790" y="-800" as="targetPoint" />
            <Array as="points">
              <mxPoint x="1049" y="-610" />
              <mxPoint x="1240" y="-610" />
              <mxPoint x="1240" y="-1000" />
              <mxPoint x="877" y="-1000" />
            </Array>
          </mxGeometry>
        </mxCell>
        <mxCell id="6e8BAjFvltRmz_b3n2AF-49" value="" style="endArrow=classic;html=1;rounded=0;exitX=1;exitY=0.5;exitDx=0;exitDy=0;entryX=0.75;entryY=0;entryDx=0;entryDy=0;" parent="1" source="6e8BAjFvltRmz_b3n2AF-46" target="-qJB5kC-WUXduJZEbSwl-1" edge="1">
          <mxGeometry width="50" height="50" relative="1" as="geometry">
            <mxPoint x="740" y="-790" as="sourcePoint" />
            <mxPoint x="790" y="-840" as="targetPoint" />
            <Array as="points">
              <mxPoint x="1320" y="-560" />
              <mxPoint x="1320" y="-1110" />
              <mxPoint x="110" y="-1110" />
            </Array>
          </mxGeometry>
        </mxCell>
        <mxCell id="6e8BAjFvltRmz_b3n2AF-50" value="Contact&lt;div&gt;Info&lt;/div&gt;" style="rounded=0;whiteSpace=wrap;html=1;" parent="1" vertex="1">
          <mxGeometry x="1045" y="-480" width="60" height="60" as="geometry" />
        </mxCell>
        <mxCell id="6e8BAjFvltRmz_b3n2AF-51" value="&lt;font style=&quot;font-size: 14px;&quot;&gt;&lt;b&gt;Airline&lt;/b&gt;&lt;/font&gt;" style="text;html=1;align=center;verticalAlign=middle;resizable=0;points=[];autosize=1;strokeColor=none;fillColor=none;" parent="1" vertex="1">
          <mxGeometry x="975" y="-510" width="70" height="30" as="geometry" />
        </mxCell>
        <mxCell id="6e8BAjFvltRmz_b3n2AF-52" value="&lt;u&gt;AirlineID&lt;/u&gt;" style="rounded=0;whiteSpace=wrap;html=1;" parent="1" vertex="1">
          <mxGeometry x="985" y="-480" width="60" height="60" as="geometry" />
        </mxCell>
        <mxCell id="6e8BAjFvltRmz_b3n2AF-53" value="Headquarters" style="rounded=0;whiteSpace=wrap;html=1;" parent="1" vertex="1">
          <mxGeometry x="1105" y="-480" width="85" height="60" as="geometry" />
        </mxCell>
        <mxCell id="6e8BAjFvltRmz_b3n2AF-54" value="Name" style="rounded=0;whiteSpace=wrap;html=1;" parent="1" vertex="1">
          <mxGeometry x="1190" y="-480" width="60" height="60" as="geometry" />
        </mxCell>
        <mxCell id="6e8BAjFvltRmz_b3n2AF-55" value="AirlineID" style="rounded=0;whiteSpace=wrap;html=1;" parent="1" vertex="1">
          <mxGeometry x="616" y="-368" width="76" height="60" as="geometry" />
        </mxCell>
        <mxCell id="6e8BAjFvltRmz_b3n2AF-56" value="Arrival&lt;div&gt;AirportID&lt;/div&gt;" style="rounded=0;whiteSpace=wrap;html=1;" parent="1" vertex="1">
          <mxGeometry x="1045" y="-368" width="75" height="60" as="geometry" />
        </mxCell>
        <mxCell id="6e8BAjFvltRmz_b3n2AF-57" value="&lt;font style=&quot;font-size: 14px;&quot;&gt;&lt;b&gt;Operates&lt;/b&gt;&lt;/font&gt;" style="text;html=1;align=center;verticalAlign=middle;resizable=0;points=[];autosize=1;strokeColor=none;fillColor=none;" parent="1" vertex="1">
          <mxGeometry x="970" y="-398" width="80" height="30" as="geometry" />
        </mxCell>
        <mxCell id="6e8BAjFvltRmz_b3n2AF-58" value="AirlineID" style="rounded=0;whiteSpace=wrap;html=1;" parent="1" vertex="1">
          <mxGeometry x="980" y="-368" width="66" height="60" as="geometry" />
        </mxCell>
        <mxCell id="6e8BAjFvltRmz_b3n2AF-59" value="Departure&lt;div&gt;AirportID&lt;/div&gt;" style="rounded=0;whiteSpace=wrap;html=1;" parent="1" vertex="1">
          <mxGeometry x="1120" y="-368" width="85" height="60" as="geometry" />
        </mxCell>
        <mxCell id="6e8BAjFvltRmz_b3n2AF-61" value="" style="endArrow=none;html=1;rounded=0;entryX=0.75;entryY=0.833;entryDx=0;entryDy=0;entryPerimeter=0;" parent="1" edge="1">
          <mxGeometry width="50" height="50" relative="1" as="geometry">
            <mxPoint x="991" y="-320" as="sourcePoint" />
            <mxPoint x="1190" y="-320" as="targetPoint" />
          </mxGeometry>
        </mxCell>
        <mxCell id="6e8BAjFvltRmz_b3n2AF-62" value="" style="endArrow=classic;html=1;rounded=0;exitX=0;exitY=0.5;exitDx=0;exitDy=0;entryX=0;entryY=0.5;entryDx=0;entryDy=0;" parent="1" source="6e8BAjFvltRmz_b3n2AF-58" target="6e8BAjFvltRmz_b3n2AF-52" edge="1">
          <mxGeometry width="50" height="50" relative="1" as="geometry">
            <mxPoint x="740" y="-430" as="sourcePoint" />
            <mxPoint x="790" y="-480" as="targetPoint" />
            <Array as="points">
              <mxPoint x="960" y="-338" />
              <mxPoint x="960" y="-400" />
              <mxPoint x="960" y="-450" />
            </Array>
          </mxGeometry>
        </mxCell>
        <mxCell id="6e8BAjFvltRmz_b3n2AF-63" value="" style="endArrow=classic;html=1;rounded=0;exitX=0.5;exitY=1;exitDx=0;exitDy=0;entryX=0.886;entryY=1.033;entryDx=0;entryDy=0;entryPerimeter=0;" parent="1" source="6e8BAjFvltRmz_b3n2AF-56" target="6e8BAjFvltRmz_b3n2AF-20" edge="1">
          <mxGeometry width="50" height="50" relative="1" as="geometry">
            <mxPoint x="740" y="-460" as="sourcePoint" />
            <mxPoint x="930" y="-870" as="targetPoint" />
            <Array as="points">
              <mxPoint x="1083" y="-290" />
              <mxPoint x="940" y="-290" />
              <mxPoint x="940" y="-870" />
              <mxPoint x="880" y="-870" />
            </Array>
          </mxGeometry>
        </mxCell>
        <mxCell id="6e8BAjFvltRmz_b3n2AF-66" value="" style="endArrow=classic;html=1;rounded=0;exitX=1;exitY=0.5;exitDx=0;exitDy=0;entryX=0.75;entryY=1;entryDx=0;entryDy=0;" parent="1" source="6e8BAjFvltRmz_b3n2AF-59" target="6e8BAjFvltRmz_b3n2AF-22" edge="1">
          <mxGeometry width="50" height="50" relative="1" as="geometry">
            <mxPoint x="1040" y="-430" as="sourcePoint" />
            <mxPoint x="1090" y="-480" as="targetPoint" />
            <Array as="points">
              <mxPoint x="1280" y="-338" />
              <mxPoint x="1280" y="-910" />
              <mxPoint x="930" y="-910" />
            </Array>
          </mxGeometry>
        </mxCell>
        <mxCell id="6e8BAjFvltRmz_b3n2AF-67" value="" style="endArrow=none;dashed=1;html=1;dashPattern=1 3;strokeWidth=2;rounded=0;" parent="1" edge="1">
          <mxGeometry width="50" height="50" relative="1" as="geometry">
            <mxPoint x="728.5" y="-330" as="sourcePoint" />
            <mxPoint x="775.5" y="-330" as="targetPoint" />
          </mxGeometry>
        </mxCell>
        <mxCell id="6e8BAjFvltRmz_b3n2AF-68" value="" style="endArrow=classic;html=1;rounded=0;exitX=0.5;exitY=0;exitDx=0;exitDy=0;entryX=0;entryY=0.25;entryDx=0;entryDy=0;" parent="1" source="6e8BAjFvltRmz_b3n2AF-55" target="6e8BAjFvltRmz_b3n2AF-52" edge="1">
          <mxGeometry width="50" height="50" relative="1" as="geometry">
            <mxPoint x="770" y="-290" as="sourcePoint" />
            <mxPoint x="820" y="-340" as="targetPoint" />
            <Array as="points">
              <mxPoint x="752" y="-465" />
            </Array>
          </mxGeometry>
        </mxCell>
        <mxCell id="6e8BAjFvltRmz_b3n2AF-69" value="AirlineID" style="rounded=0;whiteSpace=wrap;html=1;" parent="1" vertex="1">
          <mxGeometry x="645" y="-500" width="76" height="60" as="geometry" />
        </mxCell>
        <mxCell id="6e8BAjFvltRmz_b3n2AF-70" value="" style="endArrow=none;dashed=1;html=1;dashPattern=1 3;strokeWidth=2;rounded=0;" parent="1" edge="1">
          <mxGeometry width="50" height="50" relative="1" as="geometry">
            <mxPoint x="659.5" y="-460.00000000000006" as="sourcePoint" />
            <mxPoint x="706.5" y="-460.00000000000006" as="targetPoint" />
          </mxGeometry>
        </mxCell>
        <mxCell id="6e8BAjFvltRmz_b3n2AF-71" value="" style="endArrow=classic;html=1;rounded=0;exitX=1;exitY=0.25;exitDx=0;exitDy=0;entryX=0;entryY=0;entryDx=0;entryDy=0;" parent="1" source="6e8BAjFvltRmz_b3n2AF-69" target="6e8BAjFvltRmz_b3n2AF-52" edge="1">
          <mxGeometry width="50" height="50" relative="1" as="geometry">
            <mxPoint x="770" y="-350" as="sourcePoint" />
            <mxPoint x="820" y="-400" as="targetPoint" />
          </mxGeometry>
        </mxCell>
        <mxCell id="VgQ9BqFcc3qlnG0QRLHN-1" value="" style="endArrow=none;dashed=1;html=1;dashPattern=1 3;strokeWidth=2;rounded=0;exitX=1;exitY=0.75;exitDx=0;exitDy=0;" parent="1" source="-qJB5kC-WUXduJZEbSwl-17" edge="1">
          <mxGeometry width="50" height="50" relative="1" as="geometry">
            <mxPoint x="280" y="-920" as="sourcePoint" />
            <mxPoint x="480" y="-830" as="targetPoint" />
            <Array as="points">
              <mxPoint x="410" y="-830" />
              <mxPoint x="470" y="-830" />
            </Array>
          </mxGeometry>
        </mxCell>
        <mxCell id="VgQ9BqFcc3qlnG0QRLHN-10" value="" style="endArrow=none;html=1;rounded=0;entryX=0.75;entryY=0.833;entryDx=0;entryDy=0;entryPerimeter=0;" parent="1" edge="1">
          <mxGeometry width="50" height="50" relative="1" as="geometry">
            <mxPoint x="1001" y="-660" as="sourcePoint" />
            <mxPoint x="1200" y="-660" as="targetPoint" />
          </mxGeometry>
        </mxCell>
      </root>
    </mxGraphModel>
  </diagram>
</mxfile>
